<mxfile host="Electron" agent="Mozilla/5.0 (Windows NT 10.0; Win64; x64) AppleWebKit/537.36 (KHTML, like Gecko) draw.io/25.0.2 Chrome/128.0.6613.186 Electron/32.2.5 Safari/537.36" version="25.0.2">
  <diagram name="Страница 1" id="YFkreIH9KbqsG9Su4lgm">
    <mxGraphModel dx="1195" dy="703" grid="1" gridSize="10" guides="1" tooltips="1" connect="1" arrows="1" fold="1" page="1" pageScale="1" pageWidth="827" pageHeight="1169" math="0" shadow="0">
      <root>
        <mxCell id="0" />
        <mxCell id="1" parent="0" />
        <mxCell id="8Ky44_infqaKiyr_MDjT-3" value="&lt;font face=&quot;Times New Roman&quot;&gt;&lt;font style=&quot;font-size: 12px;&quot;&gt;dbcity.read(dbcity.building.address).where(&lt;/font&gt;dbcity.building.address_owner=&lt;br&gt;&lt;font style=&quot;font-size: 12px;&quot;&gt;dbpeople.re&lt;font style=&quot;font-size: 12px;&quot;&gt;ad(&lt;/font&gt;&lt;/font&gt;&lt;font style=&quot;font-size: 12px;&quot;&gt;&lt;font style=&quot;font-size: 12px;&quot;&gt;dbpeople.personal_data.name).where(dbpeople.personal_data.id=1&lt;/font&gt;))&lt;/font&gt;&lt;/font&gt;" style="rounded=0;whiteSpace=wrap;html=1;" parent="1" vertex="1">
          <mxGeometry x="210" y="160" width="510" height="40" as="geometry" />
        </mxCell>
        <mxCell id="8Ky44_infqaKiyr_MDjT-5" value="&lt;font style=&quot;font-size: 12px;&quot;&gt;dbcity.read(dbcity.&lt;span style=&quot;border-color: var(--border-color);&quot; class=&quot;ezkurwreuab5ozgtqnkl&quot;&gt;&lt;span style=&quot;border-color: var(--border-color);&quot; lang=&quot;EN-US&quot;&gt;building&lt;/span&gt;&lt;/span&gt;&lt;span style=&quot;border-color: var(--border-color);&quot; lang=&quot;EN-US&quot;&gt;.address).where(dbcity.building.address_owner=x),&lt;br&gt;где x - результат исполнения предыдущего подсзапроса&lt;/span&gt;&lt;/font&gt;" style="rounded=0;whiteSpace=wrap;html=1;fontFamily=Times New Roman;fontSize=16;" parent="1" vertex="1">
          <mxGeometry x="71" y="250" width="380" height="40" as="geometry" />
        </mxCell>
        <mxCell id="8Ky44_infqaKiyr_MDjT-7" value="&lt;font style=&quot;font-size: 12px;&quot;&gt;db.&lt;span class=&quot;ezkurwreuab5ozgtqnkl&quot;&gt;&lt;span style=&quot;font-family: &amp;quot;Times New Roman&amp;quot;, serif;&quot; lang=&quot;EN-US&quot;&gt;personal&lt;/span&gt;&lt;/span&gt;&lt;span style=&quot;font-family: &amp;quot;Times New Roman&amp;quot;, serif;&quot; lang=&quot;EN-US&quot;&gt;_&lt;span class=&quot;ezkurwreuab5ozgtqnkl&quot;&gt;data&lt;/span&gt;&lt;/span&gt;&lt;span style=&quot;font-family: &amp;quot;Times New Roman&amp;quot;, serif;&quot; lang=&quot;EN-US&quot;&gt;.find({id: 1},{_id: 0, name: 1})&lt;/span&gt;&lt;/font&gt;" style="rounded=0;whiteSpace=wrap;html=1;fontFamily=Times New Roman;fontSize=16;" parent="1" vertex="1">
          <mxGeometry x="559" y="360" width="251" height="40" as="geometry" />
        </mxCell>
        <mxCell id="8Ky44_infqaKiyr_MDjT-9" value="" style="rounded=0;whiteSpace=wrap;html=1;fontFamily=Times New Roman;fontSize=16;" parent="1" vertex="1">
          <mxGeometry x="658" y="290" width="20" as="geometry" />
        </mxCell>
        <mxCell id="8Ky44_infqaKiyr_MDjT-10" value="" style="rounded=0;whiteSpace=wrap;html=1;fontFamily=Times New Roman;fontSize=16;" parent="1" vertex="1">
          <mxGeometry x="169" y="210" width="20" as="geometry" />
        </mxCell>
        <mxCell id="8Ky44_infqaKiyr_MDjT-12" value="&lt;font style=&quot;font-size: 12px;&quot;&gt;dbpeople.read(dbpeople.personal_data.name).&lt;br&gt;where(dbpeople.personal_data.id=1)&lt;/font&gt;" style="rounded=0;whiteSpace=wrap;html=1;fontFamily=Times New Roman;fontSize=16;" parent="1" vertex="1">
          <mxGeometry x="560" y="250" width="250" height="40" as="geometry" />
        </mxCell>
        <mxCell id="8Ky44_infqaKiyr_MDjT-13" value="" style="rounded=0;whiteSpace=wrap;html=1;fontFamily=Times New Roman;fontSize=16;" parent="1" vertex="1">
          <mxGeometry x="569" y="210" width="20" as="geometry" />
        </mxCell>
        <mxCell id="8Ky44_infqaKiyr_MDjT-14" value="" style="endArrow=classic;html=1;rounded=0;fontFamily=Times New Roman;fontSize=16;exitX=0.5;exitY=1;exitDx=0;exitDy=0;entryX=0.5;entryY=0;entryDx=0;entryDy=0;" parent="1" source="CA3wugjqflJWszcwqzMW-31" target="8Ky44_infqaKiyr_MDjT-12" edge="1">
          <mxGeometry width="50" height="50" relative="1" as="geometry">
            <mxPoint x="639" y="200" as="sourcePoint" />
            <mxPoint x="650" y="230" as="targetPoint" />
          </mxGeometry>
        </mxCell>
        <mxCell id="8Ky44_infqaKiyr_MDjT-18" value="" style="endArrow=classic;html=1;rounded=0;dashed=1;fontFamily=Times New Roman;fontSize=16;entryX=0.75;entryY=0;entryDx=0;entryDy=0;exitX=0.75;exitY=1;exitDx=0;exitDy=0;" parent="1" source="8Ky44_infqaKiyr_MDjT-12" target="8Ky44_infqaKiyr_MDjT-7" edge="1">
          <mxGeometry width="50" height="50" relative="1" as="geometry">
            <mxPoint x="738" y="320" as="sourcePoint" />
            <mxPoint x="668" y="350" as="targetPoint" />
          </mxGeometry>
        </mxCell>
        <mxCell id="8Ky44_infqaKiyr_MDjT-19" value="&lt;font style=&quot;font-size: 12px;&quot;&gt;Чтение&lt;/font&gt;" style="edgeLabel;html=1;align=center;verticalAlign=middle;resizable=0;points=[];fontSize=16;fontFamily=Times New Roman;" parent="8Ky44_infqaKiyr_MDjT-18" vertex="1" connectable="0">
          <mxGeometry x="-0.436" y="-1" relative="1" as="geometry">
            <mxPoint x="1" y="17" as="offset" />
          </mxGeometry>
        </mxCell>
        <mxCell id="8Ky44_infqaKiyr_MDjT-21" value="" style="endArrow=classic;html=1;rounded=0;dashed=1;fontFamily=Times New Roman;fontSize=16;dashPattern=1 1;exitX=0.25;exitY=0;exitDx=0;exitDy=0;entryX=0.25;entryY=1;entryDx=0;entryDy=0;" parent="1" source="8Ky44_infqaKiyr_MDjT-7" target="8Ky44_infqaKiyr_MDjT-12" edge="1">
          <mxGeometry width="50" height="50" relative="1" as="geometry">
            <mxPoint x="588" y="340" as="sourcePoint" />
            <mxPoint x="498" y="320" as="targetPoint" />
          </mxGeometry>
        </mxCell>
        <mxCell id="8Ky44_infqaKiyr_MDjT-22" value="&lt;font style=&quot;font-size: 12px;&quot;&gt;Исполнение&lt;/font&gt;" style="edgeLabel;html=1;align=center;verticalAlign=middle;resizable=0;points=[];fontSize=16;fontFamily=Times New Roman;" parent="8Ky44_infqaKiyr_MDjT-21" vertex="1" connectable="0">
          <mxGeometry x="-0.5271" relative="1" as="geometry">
            <mxPoint y="-19" as="offset" />
          </mxGeometry>
        </mxCell>
        <mxCell id="8Ky44_infqaKiyr_MDjT-23" value="" style="endArrow=classic;html=1;rounded=0;dashed=1;dashPattern=1 1;fontFamily=Times New Roman;fontSize=16;entryX=1;entryY=0.5;entryDx=0;entryDy=0;exitX=0;exitY=0.5;exitDx=0;exitDy=0;" parent="1" source="8Ky44_infqaKiyr_MDjT-12" target="8Ky44_infqaKiyr_MDjT-5" edge="1">
          <mxGeometry width="50" height="50" relative="1" as="geometry">
            <mxPoint x="429" y="360" as="sourcePoint" />
            <mxPoint x="479" y="310" as="targetPoint" />
          </mxGeometry>
        </mxCell>
        <mxCell id="8Ky44_infqaKiyr_MDjT-24" value="&lt;font style=&quot;font-size: 12px;&quot;&gt;Передача&lt;br&gt;значения&lt;/font&gt;" style="edgeLabel;html=1;align=center;verticalAlign=middle;resizable=0;points=[];fontSize=16;fontFamily=Times New Roman;" parent="8Ky44_infqaKiyr_MDjT-23" vertex="1" connectable="0">
          <mxGeometry x="-0.379" y="1" relative="1" as="geometry">
            <mxPoint x="-21" y="-1" as="offset" />
          </mxGeometry>
        </mxCell>
        <mxCell id="0iqPuGfPXbqopkNXuGml-3" value="&lt;font style=&quot;font-size: 12px;&quot;&gt;db.&lt;span style=&quot;border-color: var(--border-color);&quot; class=&quot;ezkurwreuab5ozgtqnkl&quot;&gt;&lt;span style=&quot;border-color: var(--border-color); font-family: &amp;quot;Times New Roman&amp;quot;, serif;&quot; lang=&quot;EN-US&quot;&gt;personal&lt;/span&gt;&lt;/span&gt;&lt;span style=&quot;border-color: var(--border-color); font-family: &amp;quot;Times New Roman&amp;quot;, serif;&quot; lang=&quot;EN-US&quot;&gt;_&lt;span style=&quot;border-color: var(--border-color);&quot; class=&quot;ezkurwreuab5ozgtqnkl&quot;&gt;data&lt;/span&gt;&lt;/span&gt;&lt;span style=&quot;border-color: var(--border-color); font-family: &amp;quot;Times New Roman&amp;quot;, serif;&quot; lang=&quot;EN-US&quot;&gt;.find({address_owner: x},{_id: 0, name: 1})&lt;/span&gt;&lt;/font&gt;" style="rounded=0;whiteSpace=wrap;html=1;fontFamily=Times New Roman;fontSize=16;" parent="1" vertex="1">
          <mxGeometry x="70" y="360" width="380" height="40" as="geometry" />
        </mxCell>
        <mxCell id="0iqPuGfPXbqopkNXuGml-6" value="" style="endArrow=classic;html=1;rounded=0;fontSize=12;entryX=0.75;entryY=0;entryDx=0;entryDy=0;dashed=1;exitX=0.75;exitY=1;exitDx=0;exitDy=0;" parent="1" source="8Ky44_infqaKiyr_MDjT-5" target="0iqPuGfPXbqopkNXuGml-3" edge="1">
          <mxGeometry width="50" height="50" relative="1" as="geometry">
            <mxPoint x="380" y="320" as="sourcePoint" />
            <mxPoint x="520" y="290" as="targetPoint" />
          </mxGeometry>
        </mxCell>
        <mxCell id="0iqPuGfPXbqopkNXuGml-10" value="&lt;font face=&quot;Times New Roman&quot; style=&quot;font-size: 12px;&quot;&gt;Чтение&lt;/font&gt;" style="edgeLabel;html=1;align=center;verticalAlign=middle;resizable=0;points=[];fontSize=12;" parent="0iqPuGfPXbqopkNXuGml-6" vertex="1" connectable="0">
          <mxGeometry x="0.353" y="3" relative="1" as="geometry">
            <mxPoint x="-3" y="-14" as="offset" />
          </mxGeometry>
        </mxCell>
        <mxCell id="0iqPuGfPXbqopkNXuGml-8" value="" style="endArrow=classic;html=1;rounded=0;fontSize=12;exitX=0.25;exitY=0;exitDx=0;exitDy=0;dashed=1;dashPattern=1 1;entryX=0.25;entryY=1;entryDx=0;entryDy=0;" parent="1" source="0iqPuGfPXbqopkNXuGml-3" target="8Ky44_infqaKiyr_MDjT-5" edge="1">
          <mxGeometry width="50" height="50" relative="1" as="geometry">
            <mxPoint x="470" y="340" as="sourcePoint" />
            <mxPoint x="170" y="320" as="targetPoint" />
          </mxGeometry>
        </mxCell>
        <mxCell id="0iqPuGfPXbqopkNXuGml-9" value="&lt;font face=&quot;Times New Roman&quot;&gt;Исполнение&lt;/font&gt;" style="edgeLabel;html=1;align=center;verticalAlign=middle;resizable=0;points=[];fontSize=12;" parent="0iqPuGfPXbqopkNXuGml-8" vertex="1" connectable="0">
          <mxGeometry x="-0.5035" relative="1" as="geometry">
            <mxPoint y="-20" as="offset" />
          </mxGeometry>
        </mxCell>
        <mxCell id="0iqPuGfPXbqopkNXuGml-11" value="" style="rounded=0;whiteSpace=wrap;html=1;fontFamily=Times New Roman;fontSize=12;" parent="1" vertex="1">
          <mxGeometry x="310" y="290" width="30" as="geometry" />
        </mxCell>
        <mxCell id="0iqPuGfPXbqopkNXuGml-14" value="" style="rounded=0;whiteSpace=wrap;html=1;fontFamily=Times New Roman;fontSize=12;" parent="1" vertex="1">
          <mxGeometry x="200" y="290" width="30" as="geometry" />
        </mxCell>
        <mxCell id="CA3wugjqflJWszcwqzMW-4" value="" style="rounded=0;whiteSpace=wrap;html=1;fontSize=12;" parent="1" vertex="1">
          <mxGeometry x="548" y="290" width="20" as="geometry" />
        </mxCell>
        <mxCell id="CA3wugjqflJWszcwqzMW-5" value="" style="rounded=0;whiteSpace=wrap;html=1;fontSize=12;" parent="1" vertex="1">
          <mxGeometry x="688" y="290" width="20" as="geometry" />
        </mxCell>
        <mxCell id="CA3wugjqflJWszcwqzMW-6" value="" style="rounded=0;whiteSpace=wrap;html=1;fontSize=12;" parent="1" vertex="1">
          <mxGeometry x="541.5" y="210" width="80" as="geometry" />
        </mxCell>
        <mxCell id="CA3wugjqflJWszcwqzMW-9" value="" style="rounded=0;whiteSpace=wrap;html=1;fontSize=12;" parent="1" vertex="1">
          <mxGeometry x="599" y="210" width="20" as="geometry" />
        </mxCell>
        <mxCell id="CA3wugjqflJWszcwqzMW-14" value="" style="endArrow=classic;html=1;rounded=0;fontSize=12;entryX=0.5;entryY=0;entryDx=0;entryDy=0;exitX=0.5;exitY=1;exitDx=0;exitDy=0;" parent="1" source="CA3wugjqflJWszcwqzMW-30" target="8Ky44_infqaKiyr_MDjT-5" edge="1">
          <mxGeometry width="50" height="50" relative="1" as="geometry">
            <mxPoint x="320" y="220" as="sourcePoint" />
            <mxPoint x="339" y="240" as="targetPoint" />
          </mxGeometry>
        </mxCell>
        <mxCell id="CA3wugjqflJWszcwqzMW-27" value="" style="rounded=0;whiteSpace=wrap;html=1;fontFamily=Times New Roman;fontSize=12;" parent="1" vertex="1">
          <mxGeometry x="159" y="200" width="20" as="geometry" />
        </mxCell>
        <mxCell id="CA3wugjqflJWszcwqzMW-28" value="" style="rounded=0;whiteSpace=wrap;html=1;fontFamily=Times New Roman;fontSize=12;" parent="1" vertex="1">
          <mxGeometry x="629" y="200" width="20" as="geometry" />
        </mxCell>
        <mxCell id="CA3wugjqflJWszcwqzMW-30" value="" style="rounded=0;whiteSpace=wrap;html=1;fontFamily=Times New Roman;fontSize=12;" parent="1" vertex="1">
          <mxGeometry x="251" y="200" width="20" as="geometry" />
        </mxCell>
        <mxCell id="CA3wugjqflJWszcwqzMW-31" value="" style="rounded=0;whiteSpace=wrap;html=1;fontFamily=Times New Roman;fontSize=12;" parent="1" vertex="1">
          <mxGeometry x="660" y="200" width="50" as="geometry" />
        </mxCell>
      </root>
    </mxGraphModel>
  </diagram>
</mxfile>
